<?xml version="1.0" encoding="UTF-8" standalone="no"?>
<!DOCTYPE svg PUBLIC "-//W3C//DTD SVG 1.1//EN"
 "http://www.w3.org/Graphics/SVG/1.1/DTD/svg11.dtd">
<!-- Generated by graphviz version 2.40.1 (20161225.0304)
 -->
<!-- Title: G Pages: 1 -->
<svg width="794pt" height="144pt"
 viewBox="0.00 0.00 794.09 143.83" xmlns="http://www.w3.org/2000/svg" xmlns:xlink="http://www.w3.org/1999/xlink">
<g id="graph0" class="graph" transform="scale(1 1) rotate(0) translate(4 139.8313)">
<title>G</title>
<polygon fill="#ffffff" stroke="transparent" points="-4,4 -4,-139.8313 790.0895,-139.8313 790.0895,4 -4,4"/>
<!-- Bitcoin\nTypes -->
<g id="node1" class="node">
<title>Bitcoin\nTypes</title>
<polygon fill="none" stroke="#000000" points="188.5349,-50.0175 131.0881,-50.0175 131.0881,-8.8137 188.5349,-8.8137 188.5349,-50.0175"/>
<text text-anchor="middle" x="159.8115" y="-33.6156" font-family="Times,serif" font-size="14.00" fill="#000000">Bitcoin</text>
<text text-anchor="middle" x="159.8115" y="-16.8156" font-family="Times,serif" font-size="14.00" fill="#000000">Types</text>
</g>
<!-- Vineyard\nBitcoin -->
<g id="node7" class="node">
<title>Vineyard\nBitcoin</title>
<ellipse fill="none" stroke="#000000" cx="280.8203" cy="-29.4156" rx="48.29" ry="29.3315"/>
<text text-anchor="middle" x="280.8203" y="-33.6156" font-family="Times,serif" font-size="14.00" fill="#000000">Vineyard</text>
<text text-anchor="middle" x="280.8203" y="-16.8156" font-family="Times,serif" font-size="14.00" fill="#000000">Bitcoin</text>
</g>
<!-- Bitcoin\nTypes&#45;&gt;Vineyard\nBitcoin -->
<g id="edge2" class="edge">
<title>Bitcoin\nTypes&#45;&gt;Vineyard\nBitcoin</title>
<path fill="none" stroke="#000000" d="M198.8086,-29.4156C206.3496,-29.4156 214.403,-29.4156 222.4075,-29.4156"/>
<polygon fill="#000000" stroke="#000000" points="198.4889,-25.9157 188.4889,-29.4156 198.4889,-32.9157 198.4889,-25.9157"/>
<polygon fill="#000000" stroke="#000000" points="222.4782,-32.9157 232.4782,-29.4156 222.4781,-25.9157 222.4782,-32.9157"/>
</g>
<!-- Ethereum\nTypes -->
<g id="node2" class="node">
<title>Ethereum\nTypes</title>
<polygon fill="none" stroke="#000000" points="195.2364,-127.0175 124.3866,-127.0175 124.3866,-85.8137 195.2364,-85.8137 195.2364,-127.0175"/>
<text text-anchor="middle" x="159.8115" y="-110.6156" font-family="Times,serif" font-size="14.00" fill="#000000">Ethereum</text>
<text text-anchor="middle" x="159.8115" y="-93.8156" font-family="Times,serif" font-size="14.00" fill="#000000">Types</text>
</g>
<!-- Vineyard\nEthereum -->
<g id="node9" class="node">
<title>Vineyard\nEthereum</title>
<ellipse fill="none" stroke="#000000" cx="280.8203" cy="-106.4156" rx="49.5948" ry="29.3315"/>
<text text-anchor="middle" x="280.8203" y="-110.6156" font-family="Times,serif" font-size="14.00" fill="#000000">Vineyard</text>
<text text-anchor="middle" x="280.8203" y="-93.8156" font-family="Times,serif" font-size="14.00" fill="#000000">Ethereum</text>
</g>
<!-- Ethereum\nTypes&#45;&gt;Vineyard\nEthereum -->
<g id="edge5" class="edge">
<title>Ethereum\nTypes&#45;&gt;Vineyard\nEthereum</title>
<path fill="none" stroke="#000000" d="M205.3951,-106.4156C210.3276,-106.4156 215.4013,-106.4156 220.4736,-106.4156"/>
<polygon fill="#000000" stroke="#000000" points="205.1376,-102.9157 195.1376,-106.4156 205.1375,-109.9157 205.1376,-102.9157"/>
<polygon fill="#000000" stroke="#000000" points="220.8372,-109.9157 230.8372,-106.4156 220.8372,-102.9157 220.8372,-109.9157"/>
</g>
<!-- Blockchain\nTypes -->
<g id="node3" class="node">
<title>Blockchain\nTypes</title>
<polygon fill="none" stroke="#000000" points="446.2601,-88.0175 366.7362,-88.0175 366.7362,-46.8137 446.2601,-46.8137 446.2601,-88.0175"/>
<text text-anchor="middle" x="406.4981" y="-71.6156" font-family="Times,serif" font-size="14.00" fill="#000000">Blockchain</text>
<text text-anchor="middle" x="406.4981" y="-54.8156" font-family="Times,serif" font-size="14.00" fill="#000000">Types</text>
</g>
<!-- Vineyard\nMinotaur -->
<g id="node10" class="node">
<title>Vineyard\nMinotaur</title>
<ellipse fill="none" stroke="#000000" cx="530.5336" cy="-67.4156" rx="48.3099" ry="29.3315"/>
<text text-anchor="middle" x="530.5336" y="-71.6156" font-family="Times,serif" font-size="14.00" fill="#000000">Vineyard</text>
<text text-anchor="middle" x="530.5336" y="-54.8156" font-family="Times,serif" font-size="14.00" fill="#000000">Minotaur</text>
</g>
<!-- Blockchain\nTypes&#45;&gt;Vineyard\nMinotaur -->
<g id="edge7" class="edge">
<title>Blockchain\nTypes&#45;&gt;Vineyard\nMinotaur</title>
<path fill="none" stroke="#000000" d="M456.4925,-67.4156C461.4878,-67.4156 466.5913,-67.4156 471.6665,-67.4156"/>
<polygon fill="#000000" stroke="#000000" points="456.4265,-63.9157 446.4265,-67.4156 456.4264,-70.9157 456.4265,-63.9157"/>
<polygon fill="#000000" stroke="#000000" points="472.0009,-70.9157 482.0009,-67.4156 472.0008,-63.9157 472.0009,-70.9157"/>
</g>
<!-- Minotaur\nTypes -->
<g id="node4" class="node">
<title>Minotaur\nTypes</title>
<polygon fill="none" stroke="#000000" points="682.8399,-88.0175 614.6377,-88.0175 614.6377,-46.8137 682.8399,-46.8137 682.8399,-88.0175"/>
<text text-anchor="middle" x="648.7388" y="-71.6156" font-family="Times,serif" font-size="14.00" fill="#000000">Minotaur</text>
<text text-anchor="middle" x="648.7388" y="-54.8156" font-family="Times,serif" font-size="14.00" fill="#000000">Types</text>
</g>
<!-- Database -->
<g id="node5" class="node">
<title>Database</title>
<path fill="none" stroke="#000000" d="M786.2402,-82.1429C786.2402,-83.9488 771.0902,-85.4156 752.4394,-85.4156 733.7886,-85.4156 718.6385,-83.9488 718.6385,-82.1429 718.6385,-82.1429 718.6385,-52.6884 718.6385,-52.6884 718.6385,-50.8825 733.7886,-49.4156 752.4394,-49.4156 771.0902,-49.4156 786.2402,-50.8825 786.2402,-52.6884 786.2402,-52.6884 786.2402,-82.1429 786.2402,-82.1429"/>
<path fill="none" stroke="#000000" d="M786.2402,-82.1429C786.2402,-80.3371 771.0902,-78.8702 752.4394,-78.8702 733.7886,-78.8702 718.6385,-80.3371 718.6385,-82.1429"/>
<text text-anchor="middle" x="752.4394" y="-63.2156" font-family="Times,serif" font-size="14.00" fill="#000000">Database</text>
</g>
<!-- Minotaur\nTypes&#45;&gt;Database -->
<g id="edge9" class="edge">
<title>Minotaur\nTypes&#45;&gt;Database</title>
<path fill="none" stroke="#000000" d="M693.1688,-67.4156C698.2243,-67.4156 703.3759,-67.4156 708.4259,-67.4156"/>
<polygon fill="#000000" stroke="#000000" points="692.9817,-63.9157 682.9816,-67.4156 692.9816,-70.9157 692.9817,-63.9157"/>
<polygon fill="#000000" stroke="#000000" points="708.586,-70.9157 718.5859,-67.4156 708.5859,-63.9157 708.586,-70.9157"/>
</g>
<!-- Bitcoind -->
<g id="node6" class="node">
<title>Bitcoind</title>
<ellipse fill="none" stroke="#000000" cx="44.2999" cy="-29.4156" rx="44.1006" ry="18"/>
<text text-anchor="middle" x="44.2999" y="-25.2156" font-family="Times,serif" font-size="14.00" fill="#000000">Bitcoind</text>
</g>
<!-- Bitcoind&#45;&gt;Bitcoin\nTypes -->
<g id="edge1" class="edge">
<title>Bitcoind&#45;&gt;Bitcoin\nTypes</title>
<path fill="none" stroke="#000000" d="M98.7921,-29.4156C106.2959,-29.4156 113.8734,-29.4156 121.0158,-29.4156"/>
<polygon fill="#000000" stroke="#000000" points="98.6294,-25.9157 88.6293,-29.4156 98.6293,-32.9157 98.6294,-25.9157"/>
<polygon fill="#000000" stroke="#000000" points="121.1097,-32.9157 131.1096,-29.4156 121.1096,-25.9157 121.1097,-32.9157"/>
</g>
<!-- Vineyard\nBitcoin&#45;&gt;Blockchain\nTypes -->
<g id="edge3" class="edge">
<title>Vineyard\nBitcoin&#45;&gt;Blockchain\nTypes</title>
<path fill="none" stroke="#000000" d="M333.9477,-45.4793C341.5402,-47.7749 349.3264,-50.1292 356.8486,-52.4036"/>
<polygon fill="#000000" stroke="#000000" points="334.6565,-42.0371 324.0715,-42.4931 332.6305,-48.7376 334.6565,-42.0371"/>
<polygon fill="#000000" stroke="#000000" points="355.9617,-55.7918 366.5467,-55.3359 357.9877,-49.0914 355.9617,-55.7918"/>
</g>
<!-- Geth -->
<g id="node8" class="node">
<title>Geth</title>
<ellipse fill="none" stroke="#000000" cx="44.2999" cy="-106.4156" rx="29.6147" ry="18"/>
<text text-anchor="middle" x="44.2999" y="-102.2156" font-family="Times,serif" font-size="14.00" fill="#000000">Geth</text>
</g>
<!-- Geth&#45;&gt;Ethereum\nTypes -->
<g id="edge4" class="edge">
<title>Geth&#45;&gt;Ethereum\nTypes</title>
<path fill="none" stroke="#000000" d="M84.4772,-106.4156C94.1681,-106.4156 104.5889,-106.4156 114.4969,-106.4156"/>
<polygon fill="#000000" stroke="#000000" points="84.3477,-102.9157 74.3476,-106.4156 84.3476,-109.9157 84.3477,-102.9157"/>
<polygon fill="#000000" stroke="#000000" points="114.5843,-109.9157 124.5843,-106.4156 114.5842,-102.9157 114.5843,-109.9157"/>
</g>
<!-- Vineyard\nEthereum&#45;&gt;Blockchain\nTypes -->
<g id="edge6" class="edge">
<title>Vineyard\nEthereum&#45;&gt;Blockchain\nTypes</title>
<path fill="none" stroke="#000000" d="M334.7394,-89.6836C342.033,-87.4203 349.4901,-85.1062 356.7071,-82.8666"/>
<polygon fill="#000000" stroke="#000000" points="333.643,-86.3591 325.1296,-92.6657 335.7177,-93.0446 333.643,-86.3591"/>
<polygon fill="#000000" stroke="#000000" points="357.8483,-86.1773 366.3617,-79.8707 355.7736,-79.4918 357.8483,-86.1773"/>
</g>
<!-- Vineyard\nMinotaur&#45;&gt;Minotaur\nTypes -->
<g id="edge8" class="edge">
<title>Vineyard\nMinotaur&#45;&gt;Minotaur\nTypes</title>
<path fill="none" stroke="#000000" d="M589.1648,-67.4156C594.3561,-67.4156 599.5523,-67.4156 604.593,-67.4156"/>
<polygon fill="#000000" stroke="#000000" points="588.9533,-63.9157 578.9532,-67.4156 588.9532,-70.9157 588.9533,-63.9157"/>
<polygon fill="#000000" stroke="#000000" points="604.6704,-70.9157 614.6704,-67.4156 604.6703,-63.9157 604.6704,-70.9157"/>
</g>
</g>
</svg>
