<?xml version="1.0" encoding="UTF-8" standalone="no"?>
<!DOCTYPE svg PUBLIC "-//W3C//DTD SVG 1.1//EN"
 "http://www.w3.org/Graphics/SVG/1.1/DTD/svg11.dtd">
<!-- Generated by graphviz version 2.40.1 (20161225.0304)
 -->
<!-- Title: G Pages: 1 -->
<svg width="774pt" height="67pt"
 viewBox="0.00 0.00 774.36 66.83" xmlns="http://www.w3.org/2000/svg" xmlns:xlink="http://www.w3.org/1999/xlink">
<g id="graph0" class="graph" transform="scale(1 1) rotate(0) translate(4 62.8313)">
<title>G</title>
<polygon fill="#ffffff" stroke="transparent" points="-4,4 -4,-62.8313 770.3609,-62.8313 770.3609,4 -4,4"/>
<!-- Bitcoin\nTypes -->
<g id="node1" class="node">
<title>Bitcoin\nTypes</title>
<polygon fill="none" stroke="#000000" points="178.7112,-50.0175 121.2643,-50.0175 121.2643,-8.8137 178.7112,-8.8137 178.7112,-50.0175"/>
<text text-anchor="middle" x="149.9877" y="-33.6156" font-family="Times,serif" font-size="14.00" fill="#000000">Bitcoin</text>
<text text-anchor="middle" x="149.9877" y="-16.8156" font-family="Times,serif" font-size="14.00" fill="#000000">Types</text>
</g>
<!-- Vineyard\nBitcoin -->
<g id="node6" class="node">
<title>Vineyard\nBitcoin</title>
<ellipse fill="none" stroke="#000000" cx="262.744" cy="-29.4156" rx="48.29" ry="29.3315"/>
<text text-anchor="middle" x="262.744" y="-33.6156" font-family="Times,serif" font-size="14.00" fill="#000000">Vineyard</text>
<text text-anchor="middle" x="262.744" y="-16.8156" font-family="Times,serif" font-size="14.00" fill="#000000">Bitcoin</text>
</g>
<!-- Bitcoin\nTypes&#45;&gt;Vineyard\nBitcoin -->
<g id="edge2" class="edge">
<title>Bitcoin\nTypes&#45;&gt;Vineyard\nBitcoin</title>
<path fill="none" stroke="#000000" d="M188.7966,-29.4156C193.8101,-29.4156 199.0294,-29.4156 204.273,-29.4156"/>
<polygon fill="#000000" stroke="#000000" points="188.7327,-25.9157 178.7326,-29.4156 188.7326,-32.9157 188.7327,-25.9157"/>
<polygon fill="#000000" stroke="#000000" points="204.3386,-32.9157 214.3386,-29.4156 204.3386,-25.9157 204.3386,-32.9157"/>
</g>
<!-- Blockchain\nTypes -->
<g id="node2" class="node">
<title>Blockchain\nTypes</title>
<polygon fill="none" stroke="#000000" points="426.5315,-50.0175 347.0076,-50.0175 347.0076,-8.8137 426.5315,-8.8137 426.5315,-50.0175"/>
<text text-anchor="middle" x="386.7696" y="-33.6156" font-family="Times,serif" font-size="14.00" fill="#000000">Blockchain</text>
<text text-anchor="middle" x="386.7696" y="-16.8156" font-family="Times,serif" font-size="14.00" fill="#000000">Types</text>
</g>
<!-- Vineyard\nMinotaur -->
<g id="node7" class="node">
<title>Vineyard\nMinotaur</title>
<ellipse fill="none" stroke="#000000" cx="510.8051" cy="-29.4156" rx="48.3099" ry="29.3315"/>
<text text-anchor="middle" x="510.8051" y="-33.6156" font-family="Times,serif" font-size="14.00" fill="#000000">Vineyard</text>
<text text-anchor="middle" x="510.8051" y="-16.8156" font-family="Times,serif" font-size="14.00" fill="#000000">Minotaur</text>
</g>
<!-- Blockchain\nTypes&#45;&gt;Vineyard\nMinotaur -->
<g id="edge4" class="edge">
<title>Blockchain\nTypes&#45;&gt;Vineyard\nMinotaur</title>
<path fill="none" stroke="#000000" d="M436.764,-29.4156C441.7592,-29.4156 446.8627,-29.4156 451.938,-29.4156"/>
<polygon fill="#000000" stroke="#000000" points="436.698,-25.9157 426.6979,-29.4156 436.6979,-32.9157 436.698,-25.9157"/>
<polygon fill="#000000" stroke="#000000" points="452.2724,-32.9157 462.2723,-29.4156 452.2723,-25.9157 452.2724,-32.9157"/>
</g>
<!-- Minotaur\nTypes -->
<g id="node3" class="node">
<title>Minotaur\nTypes</title>
<polygon fill="none" stroke="#000000" points="663.1113,-50.0175 594.9092,-50.0175 594.9092,-8.8137 663.1113,-8.8137 663.1113,-50.0175"/>
<text text-anchor="middle" x="629.0102" y="-33.6156" font-family="Times,serif" font-size="14.00" fill="#000000">Minotaur</text>
<text text-anchor="middle" x="629.0102" y="-16.8156" font-family="Times,serif" font-size="14.00" fill="#000000">Types</text>
</g>
<!-- Database -->
<g id="node4" class="node">
<title>Database</title>
<path fill="none" stroke="#000000" d="M766.5117,-44.1429C766.5117,-45.9488 751.3616,-47.4156 732.7108,-47.4156 714.0601,-47.4156 698.91,-45.9488 698.91,-44.1429 698.91,-44.1429 698.91,-14.6884 698.91,-14.6884 698.91,-12.8825 714.0601,-11.4156 732.7108,-11.4156 751.3616,-11.4156 766.5117,-12.8825 766.5117,-14.6884 766.5117,-14.6884 766.5117,-44.1429 766.5117,-44.1429"/>
<path fill="none" stroke="#000000" d="M766.5117,-44.1429C766.5117,-42.3371 751.3616,-40.8702 732.7108,-40.8702 714.0601,-40.8702 698.91,-42.3371 698.91,-44.1429"/>
<text text-anchor="middle" x="732.7108" y="-25.2156" font-family="Times,serif" font-size="14.00" fill="#000000">Database</text>
</g>
<!-- Minotaur\nTypes&#45;&gt;Database -->
<g id="edge6" class="edge">
<title>Minotaur\nTypes&#45;&gt;Database</title>
<path fill="none" stroke="#000000" d="M673.4403,-29.4156C678.4958,-29.4156 683.6473,-29.4156 688.6974,-29.4156"/>
<polygon fill="#000000" stroke="#000000" points="673.2531,-25.9157 663.2531,-29.4156 673.2531,-32.9157 673.2531,-25.9157"/>
<polygon fill="#000000" stroke="#000000" points="688.8574,-32.9157 698.8574,-29.4156 688.8574,-25.9157 688.8574,-32.9157"/>
</g>
<!-- bitcoind -->
<g id="node5" class="node">
<title>bitcoind</title>
<ellipse fill="none" stroke="#000000" cx="42.6881" cy="-29.4156" rx="42.8771" ry="18"/>
<text text-anchor="middle" x="42.6881" y="-25.2156" font-family="Times,serif" font-size="14.00" fill="#000000">bitcoind</text>
</g>
<!-- bitcoind&#45;&gt;Bitcoin\nTypes -->
<g id="edge1" class="edge">
<title>bitcoind&#45;&gt;Bitcoin\nTypes</title>
<path fill="none" stroke="#000000" d="M95.687,-29.4156C100.9223,-29.4156 106.1659,-29.4156 111.2182,-29.4156"/>
<polygon fill="#000000" stroke="#000000" points="95.4041,-25.9157 85.4041,-29.4156 95.404,-32.9157 95.4041,-25.9157"/>
<polygon fill="#000000" stroke="#000000" points="111.2566,-32.9157 121.2565,-29.4156 111.2565,-25.9157 111.2566,-32.9157"/>
</g>
<!-- Vineyard\nBitcoin&#45;&gt;Blockchain\nTypes -->
<g id="edge3" class="edge">
<title>Vineyard\nBitcoin&#45;&gt;Blockchain\nTypes</title>
<path fill="none" stroke="#000000" d="M321.1617,-29.4156C326.3183,-29.4156 331.5083,-29.4156 336.5882,-29.4156"/>
<polygon fill="#000000" stroke="#000000" points="321.0507,-25.9157 311.0507,-29.4156 321.0506,-32.9157 321.0507,-25.9157"/>
<polygon fill="#000000" stroke="#000000" points="336.815,-32.9157 346.815,-29.4156 336.815,-25.9157 336.815,-32.9157"/>
</g>
<!-- Vineyard\nMinotaur&#45;&gt;Minotaur\nTypes -->
<g id="edge5" class="edge">
<title>Vineyard\nMinotaur&#45;&gt;Minotaur\nTypes</title>
<path fill="none" stroke="#000000" d="M569.4363,-29.4156C574.6276,-29.4156 579.8237,-29.4156 584.8645,-29.4156"/>
<polygon fill="#000000" stroke="#000000" points="569.2247,-25.9157 559.2247,-29.4156 569.2247,-32.9157 569.2247,-25.9157"/>
<polygon fill="#000000" stroke="#000000" points="584.9419,-32.9157 594.9418,-29.4156 584.9418,-25.9157 584.9419,-32.9157"/>
</g>
</g>
</svg>
