<?xml version="1.0" encoding="UTF-8" standalone="no"?>
<!DOCTYPE svg PUBLIC "-//W3C//DTD SVG 1.1//EN"
 "http://www.w3.org/Graphics/SVG/1.1/DTD/svg11.dtd">
<!-- Generated by graphviz version 2.40.1 (20161225.0304)
 -->
<!-- Title: %0 Pages: 1 -->
<svg width="794pt" height="144pt"
 viewBox="0.00 0.00 794.09 143.83" xmlns="http://www.w3.org/2000/svg" xmlns:xlink="http://www.w3.org/1999/xlink">
<g id="graph0" class="graph" transform="scale(1 1) rotate(0) translate(4 139.8313)">
<title>%0</title>
<polygon fill="#ffffff" stroke="transparent" points="-4,4 -4,-139.8313 790.0895,-139.8313 790.0895,4 -4,4"/>
<!-- Bitcoin\nTypes -->
<g id="node1" class="node">
<title>Bitcoin\nTypes</title>
<polygon fill="none" stroke="#000000" points="188.5349,-50.0175 131.0881,-50.0175 131.0881,-8.8137 188.5349,-8.8137 188.5349,-50.0175"/>
<text text-anchor="middle" x="159.8115" y="-33.6156" font-family="Times,serif" font-size="14.00" fill="#000000">Bitcoin</text>
<text text-anchor="middle" x="159.8115" y="-16.8156" font-family="Times,serif" font-size="14.00" fill="#000000">Types</text>
</g>
<!-- Vineyard\nBitcoin -->
<g id="node7" class="node">
<title>Vineyard\nBitcoin</title>
<ellipse fill="none" stroke="#000000" cx="280.8203" cy="-29.4156" rx="48.29" ry="29.3315"/>
<text text-anchor="middle" x="280.8203" y="-33.6156" font-family="Times,serif" font-size="14.00" fill="#000000">Vineyard</text>
<text text-anchor="middle" x="280.8203" y="-16.8156" font-family="Times,serif" font-size="14.00" fill="#000000">Bitcoin</text>
</g>
<!-- Bitcoin\nTypes&#45;&gt;Vineyard\nBitcoin -->
<g id="edge2" class="edge">
<title>Bitcoin\nTypes&#45;&gt;Vineyard\nBitcoin</title>
<path fill="none" stroke="#000000" d="M188.4889,-29.4156C201.6283,-29.4156 217.5672,-29.4156 232.4782,-29.4156"/>
</g>
<!-- Ethereum\nTypes -->
<g id="node2" class="node">
<title>Ethereum\nTypes</title>
<polygon fill="none" stroke="#000000" points="195.2364,-127.0175 124.3866,-127.0175 124.3866,-85.8137 195.2364,-85.8137 195.2364,-127.0175"/>
<text text-anchor="middle" x="159.8115" y="-110.6156" font-family="Times,serif" font-size="14.00" fill="#000000">Ethereum</text>
<text text-anchor="middle" x="159.8115" y="-93.8156" font-family="Times,serif" font-size="14.00" fill="#000000">Types</text>
</g>
<!-- Vineyard\nEthereum -->
<g id="node9" class="node">
<title>Vineyard\nEthereum</title>
<ellipse fill="none" stroke="#000000" cx="280.8203" cy="-106.4156" rx="49.5948" ry="29.3315"/>
<text text-anchor="middle" x="280.8203" y="-110.6156" font-family="Times,serif" font-size="14.00" fill="#000000">Vineyard</text>
<text text-anchor="middle" x="280.8203" y="-93.8156" font-family="Times,serif" font-size="14.00" fill="#000000">Ethereum</text>
</g>
<!-- Ethereum\nTypes&#45;&gt;Vineyard\nEthereum -->
<g id="edge5" class="edge">
<title>Ethereum\nTypes&#45;&gt;Vineyard\nEthereum</title>
<path fill="none" stroke="#000000" d="M195.1376,-106.4156C206.2993,-106.4156 218.8523,-106.4156 230.8372,-106.4156"/>
</g>
<!-- Blockchain\nTypes -->
<g id="node3" class="node">
<title>Blockchain\nTypes</title>
<polygon fill="none" stroke="#000000" points="446.2601,-88.0175 366.7362,-88.0175 366.7362,-46.8137 446.2601,-46.8137 446.2601,-88.0175"/>
<text text-anchor="middle" x="406.4981" y="-71.6156" font-family="Times,serif" font-size="14.00" fill="#000000">Blockchain</text>
<text text-anchor="middle" x="406.4981" y="-54.8156" font-family="Times,serif" font-size="14.00" fill="#000000">Types</text>
</g>
<!-- Vineyard\nMinotaur -->
<g id="node10" class="node">
<title>Vineyard\nMinotaur</title>
<ellipse fill="none" stroke="#000000" cx="530.5336" cy="-67.4156" rx="48.3099" ry="29.3315"/>
<text text-anchor="middle" x="530.5336" y="-71.6156" font-family="Times,serif" font-size="14.00" fill="#000000">Vineyard</text>
<text text-anchor="middle" x="530.5336" y="-54.8156" font-family="Times,serif" font-size="14.00" fill="#000000">Minotaur</text>
</g>
<!-- Blockchain\nTypes&#45;&gt;Vineyard\nMinotaur -->
<g id="edge7" class="edge">
<title>Blockchain\nTypes&#45;&gt;Vineyard\nMinotaur</title>
<path fill="none" stroke="#000000" d="M446.4265,-67.4156C457.7576,-67.4156 470.2203,-67.4156 482.0009,-67.4156"/>
</g>
<!-- Minotaur\nTypes -->
<g id="node4" class="node">
<title>Minotaur\nTypes</title>
<polygon fill="none" stroke="#000000" points="682.8399,-88.0175 614.6377,-88.0175 614.6377,-46.8137 682.8399,-46.8137 682.8399,-88.0175"/>
<text text-anchor="middle" x="648.7388" y="-71.6156" font-family="Times,serif" font-size="14.00" fill="#000000">Minotaur</text>
<text text-anchor="middle" x="648.7388" y="-54.8156" font-family="Times,serif" font-size="14.00" fill="#000000">Types</text>
</g>
<!-- Database -->
<g id="node5" class="node">
<title>Database</title>
<path fill="none" stroke="#000000" d="M786.2402,-82.1429C786.2402,-83.9488 771.0902,-85.4156 752.4394,-85.4156 733.7886,-85.4156 718.6385,-83.9488 718.6385,-82.1429 718.6385,-82.1429 718.6385,-52.6884 718.6385,-52.6884 718.6385,-50.8825 733.7886,-49.4156 752.4394,-49.4156 771.0902,-49.4156 786.2402,-50.8825 786.2402,-52.6884 786.2402,-52.6884 786.2402,-82.1429 786.2402,-82.1429"/>
<path fill="none" stroke="#000000" d="M786.2402,-82.1429C786.2402,-80.3371 771.0902,-78.8702 752.4394,-78.8702 733.7886,-78.8702 718.6385,-80.3371 718.6385,-82.1429"/>
<text text-anchor="middle" x="752.4394" y="-63.2156" font-family="Times,serif" font-size="14.00" fill="#000000">Database</text>
</g>
<!-- Minotaur\nTypes&#45;&gt;Database -->
<g id="edge9" class="edge">
<title>Minotaur\nTypes&#45;&gt;Database</title>
<path fill="none" stroke="#000000" d="M682.9816,-67.4156C694.4268,-67.4156 707.1707,-67.4156 718.5859,-67.4156"/>
</g>
<!-- Bitcoind -->
<g id="node6" class="node">
<title>Bitcoind</title>
<ellipse fill="none" stroke="#000000" cx="44.2999" cy="-29.4156" rx="44.1006" ry="18"/>
<text text-anchor="middle" x="44.2999" y="-25.2156" font-family="Times,serif" font-size="14.00" fill="#000000">Bitcoind</text>
</g>
<!-- Bitcoind&#45;&gt;Bitcoin\nTypes -->
<g id="edge1" class="edge">
<title>Bitcoind&#45;&gt;Bitcoin\nTypes</title>
<path fill="none" stroke="#000000" d="M88.6293,-29.4156C102.8808,-29.4156 118.287,-29.4156 131.1096,-29.4156"/>
</g>
<!-- Vineyard\nBitcoin&#45;&gt;Blockchain\nTypes -->
<g id="edge3" class="edge">
<title>Vineyard\nBitcoin&#45;&gt;Blockchain\nTypes</title>
<path fill="none" stroke="#000000" d="M324.0715,-42.4931C337.8463,-46.658 353.0164,-51.2449 366.5467,-55.3359"/>
</g>
<!-- Geth -->
<g id="node8" class="node">
<title>Geth</title>
<ellipse fill="none" stroke="#000000" cx="44.2999" cy="-106.4156" rx="29.6147" ry="18"/>
<text text-anchor="middle" x="44.2999" y="-102.2156" font-family="Times,serif" font-size="14.00" fill="#000000">Geth</text>
</g>
<!-- Geth&#45;&gt;Ethereum\nTypes -->
<g id="edge4" class="edge">
<title>Geth&#45;&gt;Ethereum\nTypes</title>
<path fill="none" stroke="#000000" d="M74.3476,-106.4156C89.7224,-106.4156 108.5303,-106.4156 124.5843,-106.4156"/>
</g>
<!-- Vineyard\nEthereum&#45;&gt;Blockchain\nTypes -->
<g id="edge6" class="edge">
<title>Vineyard\nEthereum&#45;&gt;Blockchain\nTypes</title>
<path fill="none" stroke="#000000" d="M325.1296,-92.6657C338.557,-88.4989 353.2241,-83.9475 366.3617,-79.8707"/>
</g>
<!-- Vineyard\nMinotaur&#45;&gt;Minotaur\nTypes -->
<g id="edge8" class="edge">
<title>Vineyard\nMinotaur&#45;&gt;Minotaur\nTypes</title>
<path fill="none" stroke="#000000" d="M578.9532,-67.4156C590.9397,-67.4156 603.5325,-67.4156 614.6704,-67.4156"/>
</g>
</g>
</svg>
