<?xml version="1.0" encoding="UTF-8" standalone="no"?>
<!DOCTYPE svg PUBLIC "-//W3C//DTD SVG 1.1//EN"
 "http://www.w3.org/Graphics/SVG/1.1/DTD/svg11.dtd">
<!-- Generated by graphviz version 2.40.1 (20161225.0304)
 -->
<!-- Title: %0 Pages: 1 -->
<svg width="252pt" height="116pt"
 viewBox="0.00 0.00 251.72 116.00" xmlns="http://www.w3.org/2000/svg" xmlns:xlink="http://www.w3.org/1999/xlink">
<g id="graph0" class="graph" transform="scale(1 1) rotate(0) translate(4 112)">
<title>%0</title>
<polygon fill="#ffffff" stroke="transparent" points="-4,4 -4,-112 247.7218,-112 247.7218,4 -4,4"/>
<!-- Block Queue -->
<g id="node1" class="node">
<title>Block Queue</title>
<ellipse fill="none" stroke="#000000" cx="61.72" cy="-90" rx="61.9408" ry="18"/>
<text text-anchor="middle" x="61.72" y="-85.8" font-family="Times,serif" font-size="14.00" fill="#000000">Block Queue</text>
</g>
<!-- Loop -->
<g id="node2" class="node">
<title>Loop</title>
<ellipse fill="none" stroke="#000000" cx="126.72" cy="-18" rx="31.3429" ry="18"/>
<text text-anchor="middle" x="126.72" y="-13.8" font-family="Times,serif" font-size="14.00" fill="#000000">Loop</text>
</g>
<!-- Block Queue&#45;&gt;Loop -->
<g id="edge1" class="edge">
<title>Block Queue&#45;&gt;Loop</title>
<path fill="none" stroke="#000000" d="M77.4547,-72.5708C85.7558,-63.3758 96.0663,-51.9548 105.1064,-41.9413"/>
<polygon fill="#000000" stroke="#000000" points="107.9182,-44.0498 112.0213,-34.2817 102.7223,-39.359 107.9182,-44.0498"/>
</g>
<!-- Bulk Save -->
<g id="node3" class="node">
<title>Bulk Save</title>
<ellipse fill="none" stroke="#000000" cx="192.72" cy="-90" rx="51.0035" ry="18"/>
<text text-anchor="middle" x="192.72" y="-85.8" font-family="Times,serif" font-size="14.00" fill="#000000">Bulk Save</text>
</g>
<!-- Bulk Save&#45;&gt;Loop -->
<g id="edge2" class="edge">
<title>Bulk Save&#45;&gt;Loop</title>
<path fill="none" stroke="#000000" d="M169.8851,-65.0891C160.5348,-54.8889 149.978,-43.3723 141.6449,-34.2817"/>
<polygon fill="#000000" stroke="#000000" points="167.4059,-67.5643 176.7433,-72.5708 172.566,-62.8342 167.4059,-67.5643"/>
</g>
</g>
</svg>
